<?xml version="1.0" encoding="UTF-8" standalone="no"?>
<!DOCTYPE svg PUBLIC "-//W3C//DTD SVG 1.1//EN" "http://www.w3.org/Graphics/SVG/1.1/DTD/svg11.dtd">
<svg width="100%" height="100%" viewBox="0 0 64 64" version="1.1" xmlns="http://www.w3.org/2000/svg" xmlns:xlink="http://www.w3.org/1999/xlink" xml:space="preserve" xmlns:serif="http://www.serif.com/" style="fill-rule:evenodd;clip-rule:evenodd;stroke-linejoin:round;stroke-miterlimit:2;">
    <path d="M33.5,55.5L63,28L54.1,17.25C50.6,13.05 45.25,10.9 39.85,11.55L22.75,20.5L17,33L33.5,55.5Z" style="fill:rgb(113,194,255);fill-rule:nonzero;"/>
    <path d="M11.2,26.25L17.4,16.5C18.4,14.9 20.1,13.85 22,13.6L44,11C46.15,10.75 47.85,12.75 47.2,14.85L41.75,33L25.65,33L33.5,55.5L12.1,34.1C10,32 9.65,28.75 11.2,26.25Z" style="fill:white;fill-rule:nonzero;"/>
    <path d="M40.75,33L63,28L50.9,13.4C49.85,12.15 47.8,12.5 47.3,14.05L40.75,33Z" style="fill:rgb(192,226,237);fill-rule:nonzero;"/>
    <path d="M33.5,55.5L63,28L50.65,13.1C49.7,11.95 47.9,12.3 47.45,13.7L33.5,55.5Z" style="fill:rgb(54,192,247);fill-rule:nonzero;"/>
    <path d="M62.35,24.85L51.95,12.3C51.15,11.3 49.85,10.85 48.6,11.1C47.35,11.35 46.35,12.25 45.9,13.45L39.9,31.5L26.7,31.5L22.45,19.4C22.1,18.4 22.2,17.3 22.8,16.4C23.35,15.5 24.3,14.9 25.35,14.8L40.2,13C41,12.9 41.6,12.15 41.5,11.35C41.4,10.55 40.65,9.95 39.85,10.05L25,11.8C23.05,12.05 21.3,13.15 20.25,14.8C19.2,16.5 18.95,18.5 19.65,20.4L23.4,31.2L14.3,29.9C12.85,29.7 11.45,30.4 10.8,31.75C10.15,33.05 10.4,34.6 11.45,35.65L32.45,56.65C32.75,56.95 33.1,57.1 33.5,57.1C33.6,57.1 33.75,57.1 33.85,57.05C34.35,56.95 34.75,56.55 34.95,56.05L42.2,34.25L58.65,30.1L45.9,41.9C45.3,42.45 45.25,43.4 45.85,44C46.4,44.6 47.35,44.65 47.95,44.05L61.95,31C63.7,29.4 63.85,26.7 62.35,24.85ZM32.85,52.7L13.55,33.45C13.4,33.3 13.4,33.15 13.5,33C13.55,32.85 13.7,32.8 13.8,32.8L13.85,32.8L24.5,34.35L27.25,42.25C27.45,42.85 28.05,43.25 28.65,43.25C28.8,43.25 29,43.2 29.15,43.15C29.95,42.9 30.35,42 30.05,41.25L27.75,34.5L38.9,34.5L32.85,52.7ZM43.3,30.8L48.75,14.4C48.85,14.15 49,14.1 49.15,14.05L49.25,14.05C49.35,14.05 49.5,14.1 49.65,14.25L59.9,26.6L43.3,30.8Z" style="fill:rgb(5,6,20);fill-rule:nonzero;"/>
    <path d="M14.6,9.5C15.05,9.75 15.6,9.8 16.1,9.5C16.8,9.1 17.1,8.2 16.7,7.45L13.25,1.35C12.85,0.65 11.95,0.35 11.2,0.75C10.5,1.15 10.2,2.05 10.6,2.8L14,8.9C14.15,9.15 14.35,9.35 14.6,9.5Z" style="fill:rgb(54,192,247);fill-rule:nonzero;"/>
    <path d="M6.3,17.1C7,17.5 7.95,17.25 8.35,16.55C8.75,15.85 8.5,14.9 7.8,14.5L2.6,11.5C1.9,11.1 0.95,11.35 0.55,12.05C0.15,12.75 0.4,13.7 1.1,14.1L6.3,17.1Z" style="fill:rgb(54,192,247);fill-rule:nonzero;"/>
    <path d="M25.5,2L25.5,4C25.5,4.85 26.15,5.5 27,5.5C27.85,5.5 28.5,4.85 28.5,4L28.5,2C28.5,1.15 27.85,0.5 27,0.5C26.15,0.5 25.5,1.15 25.5,2Z" style="fill:rgb(54,192,247);fill-rule:nonzero;"/>
    <path d="M47,63.5L17,63.5C16.15,63.5 15.5,62.85 15.5,62C15.5,61.15 16.15,60.5 17,60.5L47,60.5C47.85,60.5 48.5,61.15 48.5,62C48.5,62.85 47.85,63.5 47,63.5Z" style="fill:rgb(5,6,20);fill-rule:nonzero;"/>
    <path d="M62,63.5L57,63.5C56.15,63.5 55.5,62.85 55.5,62C55.5,61.15 56.15,60.5 57,60.5L62,60.5C62.85,60.5 63.5,61.15 63.5,62C63.5,62.85 62.85,63.5 62,63.5Z" style="fill:rgb(68,75,84);fill-rule:nonzero;"/>
</svg>
